<?xml version="1.0" encoding="utf-8"?>
<!-- Generator: Adobe Illustrator 23.0.3, SVG Export Plug-In . SVG Version: 6.00 Build 0)  -->
<svg version="1.1" id="Layer_1" xmlns="http://www.w3.org/2000/svg" xmlns:xlink="http://www.w3.org/1999/xlink" x="0px" y="0px"
	 viewBox="0 0 400 312.3" style="enable-background:new 0 0 400 312.3;" xml:space="preserve">
<style type="text/css">
	.st0{fill:#040A04;}
	.st1{fill:#1CFB04;}
	.st2{fill:#221E20;}
	.st3{fill:#0099CC;}
	.st4{enable-background:new    ;}
	.st5{fill:#FFFF33;}
</style>
<g id="svg">
	<g>
		<path class="st0" d="M287.4,25c-1.4,2.7-3.7,10.5,1.6,10.2c2.7-0.1,6.5-4.2,8.8-5.5c6.1-3.4,11.3-2.6,18.3-3.3
			c9.3-0.8,11.9-8.8,10.1-17.1c-1.9-9.1-11.2-10.5-19.3-8.5c-8,2.1-17.2,6.7-22.2,13.6c-1.6,2.3-3.7,5.7-3.2,8.7
			C281.9,25.9,285.9,27.9,287.4,25z"/>
		<path class="st0" d="M399.9,53c-1-2.8-2.9-1.2-4.5-2.6c-0.3-0.3-0.7-3.8-1-4.3c-0.9-1.2-1.3-1.5-2.6-2.1c-2.8-1.2-7.1-0.8-10-0.6
			c-3.4,0.2-6.9,0.9-10.1,1.9c-1.8,0.5-4,2.1-5.9,2.1c-3,0-2.1-1.7-4.4-4.1c-2-2-4-2.5-6.9-2.8c-6.5-0.6-13.3,1.4-19.4,3.4
			c-4.7,1.6-9.5,3.2-14.1,5.3c-4.4,2-8.1,5.5-12.4,7.5c-6.7,3.2-8.4-0.1-13.9-3c-4.5-2.4-10.2-3.3-15.3-2.5
			c-5.5,0.9-10.6,3-15.2,6.1c-1.2,0.8-11.1,8.9-12.6,7.3c-0.4-0.4,5.1-10.2,5.7-12c1.8-4.9,2.7-9.1,3.4-14.2
			c1.2-7.6-0.6-18.6-12.1-15.5c-9.7,2.6-15.7,11.4-21.2,19.2c-5.6,7.9-10.4,16.4-17.5,23.1c-2-9.3-0.9-19.6-5.4-28.3
			c-3.5-6.3-12-12.7-19.5-11.9c-8.9,1-14.8,12.1-19.7,18.7c-2.3,3.1-4.4,6.2-6.6,9.4c-1.9,2.9-4.4,7.8-7.3,9.8
			c1-4.5-0.6-11.4-1.2-15.9c-0.7-5.3-1.3-11.3-4.2-16c-3.5-5.9-9.6-8.3-16.3-6.1c-4.8,1.6-8.6,7.3-10.6,11.7
			c-4.3,9.6-3.9,21.5-9.4,30.1c-3.3,5.1-5.8,10.3-11.1,13.9c-6.3,4.3-12.4,3.2-19.1,1.1c-4.3-1.4-8.1-2.6-12.2-4.4
			c-6.3-2.7-12.8-7.5-20.1-6.1c-12.3,2.5-9.6,15.8-5.7,23.9c5.9,12.2,15.7,20.8,24.5,30.9c3.6,4.1,7.2,11.4,5.1,17
			c-1.9,4.8-8.2,7.8-12.6,9.9c-9.8,4.7-20.4,7.3-30.3,11.7C18.7,169,6.8,173.8,2,184.3c-3.1,6.9-2.9,13.9,2.4,19.3
			c4.2,4.3,8.6,9,14,11.9c12,6.4,26.4,5.7,39.1,2.7c5.9-1.4,11.3-3.2,17-5.6c5.1-2.1,9.8-8.3,14-2.4c6.5,9.2,10.3,22.8,13.1,33.5
			c1.5,5.7,2.4,11,1.6,17c-0.8,5.8-3.4,11.1-5.2,16.6c-2,6.4-4.2,14.9-0.7,21.1c2.1,3.7,6,6.7,8.8,9.7c9.1,9.5,22.1,0.8,30-6.2
			c9.4-8.2,18.1-17.6,28.4-24.7c9.3-6.4,27.4-15,36.6-5c12.6,13.7,15.9-6.2,20.1-14.5c1.9-3.7,5.2-9.8,9.1-4.9
			c2.8,3.4,4.8,9.5,6.5,13.5c3.8,8.7,7.7,16.7,14.3,23.5c3.9,4,7.6,9.4,12.8,11.7c5.4,2.4,12.5,0.9,15.1-4.9
			c2.2-4.9,1.6-11.2,1.9-16.5c0.3-6.7,1.2-13.3,2.2-19.9c1-7,1.7-14.4,3.8-21.2c0.8-2.6,2.5-11.3,5.1-11.4c1.6-0.1,6.1,3,7.9,3.8
			c2.4,1.1,4.8,2.3,7.2,3.4c5.2,2.4,10,5.1,14.7,8.2c9.2,5.8,24.6,13.2,31.9-0.3c2.2-4,2.9-10.6,3.8-15.2c1-5.1,0.2-10.2-2.3-14.7
			c-5.1-9.5-12.8-17.8-20.2-25.6c-7.5-8-18.5-21.6-4.4-29.3c5.3-2.9,11.8-3.3,17.6-4.2c6.6-0.9,13.1-2,19.6-3.4
			c6-1.3,12.9-2.5,17.5-6.8c2.3-2.1,2.7-3.4,3.4-6.2c0.8-3,2.7-4.5,3.6-7.3c3.4-10.4-9.4-14.4-16.9-16.1c-5.1-1.2-10.2-2.8-15.2-4.2
			c-5.7-1.5-11.7-2.5-7.5-9.4c7.4-12.2,20.3-19.1,31.3-27.5c4.8-3.7,10.5-7.2,13.7-12.5C398.9,58.3,400.7,55.5,399.9,53z"/>
		<path class="st0" d="M85,63.4c5.6,2.4,12,5.5,14.2-2.2c1.8-6.2,1.7-13.1-0.5-19.1c-5-12.8-16.8-20.9-30.8-19.1
			c-12.2,1.6-26.5,11.4-18.8,25.4C57,62.6,72.4,58.1,85,63.4z"/>
		<path class="st0" d="M302.8,253.7c-2.9,1.5,0.2,6.8,0.8,8.6c1.1,3.4,1.5,6.5,0.7,9.9c-1.2,5.1-3.2,10-1.6,15.1
			c2.8,8.9,18.7,22.1,27,12.5c7.3-8.5,3.5-22.6-2.4-30.4C323.5,264.5,310.4,249.8,302.8,253.7z"/>
	</g>
	<g>
		<path class="st1" d="M293.1,18.5c5.3-1.6,10.1-1,15.5-0.1c3.7,0.6,8.2,1.7,11.5-0.6c6.8-4.7,2.5-13.2-4.3-14.3
			c-8.4-1.4-18.2,3.4-24.4,8.6c-1.3,1.1-7.5,6.7-6.5,8.8C285.8,22.7,291,19.1,293.1,18.5z"/>
		<path class="st1" d="M373.7,116.3c-7.2-2-30.9-4.1-31.6-14.8c-0.8-13.8,19.7-26.7,29.1-33.1c3.1-2.1,26.4-16,19-21.8
			c-4.2-3.3-15.6,0.8-19.9,2.2c-2.2,0.7-10.2,5.7-12.2,5c-1.8-0.7,2.8-5.3,1.7-7.8c-4.4-9.9-34.3,3.9-40.1,7
			c-5.4,2.8-11.5,9.2-18.1,8.1c-3.8-0.6-6.7-3.8-10-5.4c-3.5-1.7-7-2.2-10.9-1.7c-8.3,1-14.1,5.5-21.1,9.7c-2.5,1.5-11.3,7.6-12.1,2
			c-0.4-3.1,3.8-8.2,5-10.8c2-4.2,3.7-8.7,4.7-13.3c0.9-4.4,2.6-14.2-3.5-15.9c-12.6-3.5-23.5,17.4-29,25.3
			c-3.3,4.7-20.5,28.9-24.9,15.9c-1.2-3.6-0.3-8.7-0.5-12.5c-0.3-4.2-0.8-8.3-1.8-12.4c-1.2-4.7-3.2-11.9-8.2-14.1
			c-15.4-6.8-37.9,52.7-46.7,43.2c-2.3-2.4-1.5-8.1-1.5-11c0.1-8.4,1.9-18-0.6-26.1c-1.2-3.9-4.4-7.8-8.9-7.1
			c-5,0.8-7.9,7.1-9.6,11.1c-6,13.8-6,29.1-17,40.5C91.8,92.2,74.5,84,59.8,77c-5.4-2.6-12.6-6-17.1,0c-2.9,3.9-1.7,9-0.2,13.1
			c2.9,7.5,8.1,14.2,13.2,20.2c5.4,6.3,13,12,16.7,19.5c4.3,8.7,2.3,16.6-5.7,21.7c-14.5,9.2-32.1,12.1-47.1,20.2
			C11.5,176.1,0.3,185,3,195.9c2.9,11.9,23,12.2,32.6,12.6c10.5,0.6,19.5-1.5,29.5-4.6c5.8-1.8,11.9-2.3,18-1.3
			c7,1.2,8.7,7.2,11.5,13.1c3.8,7.9,6.8,16.2,9.2,24.6c2,7.2,3.5,13.4,2,20.9c-1.8,9-6.5,17.4-7.4,26.6
			c-1.1,11.9,8.3,17.1,18.2,11.8c12.6-6.8,22.4-18.3,33.6-27.2c8.8-7,23.2-20.6,35.8-18.1c4.4,0.8,7.3,3.9,10.1,7.2
			c5.2,5.9,10.2,4.7,12.4-2.9c1.6-5.8,2.6-13.6,8.5-16.7c4.8-2.5,9,0,12.2,3.8c10.9,12.9,11.7,33.7,26.2,44
			c4.2,3.1,9.6,3.6,13.3-0.7c4.6-5.3,3.3-14,3.7-20.5c1.1-15.4,4.7-32.2,11.9-45.9c1.3-2.5,2.8-5.1,4.9-7c3.6-3.2,5.4-1.6,9.1,0.8
			c5.8,3.8,12.1,6.1,18.3,9.2c9.8,5.1,29.8,20.8,36.7,2.7c4.9-12.8-8.7-24.5-16.5-32.4c-7.8-8-20.4-17.9-20-30.4
			c0.4-13.8,15.2-18.4,26.5-20.8c9.4-2,19-3.2,28.2-6.1c5.2-1.6,12.3-3.6,15.9-8.1C394.4,122,379.3,117.8,373.7,116.3z"/>
		<path class="st1" d="M69.2,57c5.9,0.4,10.1,1.3,15.8,3.1c4.7,1.5,7.2,0.5,7.1-4.7c-0.3-12.1-10.9-22.7-21.9-26.2
			c-8.4-2.6-19.4,0.7-20,10.7C49.6,50,60.4,56.4,69.2,57z"/>
		<path class="st1" d="M308.4,257.2c-6.2-3.1-0.9,6.6-0.5,9.6c0.5,5.3-2.2,10.1-2.3,15.4c-0.1,6.7,5.8,16.9,13.7,11.6
			c5.5-3.7,4.1-12.9,2.6-18.2C319.8,268.3,315.4,260.7,308.4,257.2z"/>
	</g>
</g>
<g>
	<g>
		<path class="st2" d="M155.5,111.6c-0.6-4.9-2.2-9.1-4.7-12.8c-2.5-3.7-6-6.7-10.4-9.1c-4.3-2.3-9.1-3.9-14.2-4.7
			c-5.1-0.8-10.6-0.8-16.6-0.1c-1.2,0.2-2.3,0.3-3.5,0.5c-1.2,0.2-2.4,0.4-3.6,0.7c-3.9,0.7-8.5,2.2-13.7,4.2l-0.1,6.9
			c-1.3,0.4-2.7,0.9-4.2,1.4s-3,1.1-4.6,1.7l0.1,22.9c2.1-1,3.9-1.8,5.3-2.4c-1.8,8.5-3.5,17-5,25.5s-2.9,17-4,25.4
			c-0.3,2-0.6,4.2-0.9,6.6c-0.3,2.3-0.6,4.7-0.9,7.1c-0.3,2.4-0.5,4.8-0.8,7.1c-0.3,2.4-0.5,4.6-0.7,6.6l18.2-3.8
			c6.7-1.4,13-4,18.9-7.7c5.9-3.8,11.6-8.7,17.1-14.8c0.7-0.8,1.4-1.6,2.1-2.5c0.7-0.8,1.4-1.7,2-2.5c0.8-0.8,1.6-1.6,2.3-2.4
			c0.7-0.8,1.5-1.6,2.3-2.4c10.8-12.2,17.2-25.4,19.2-39.6c0.3-2.1,0.5-4.1,0.6-6.2C155.8,115.2,155.7,113.4,155.5,111.6z
			 M152.6,123.9c-1.9,13.5-8,26-18.2,37.5s-21.6,18.6-34.1,21.3L84.5,186c0.9-8.2,1.8-16.5,3-24.8c2.5-18,5.8-36,9.9-54.2
			c-2.1,0.6-4.1,1.4-6,2.3l-0.2-17.2c3.6-1.4,7.2-2.5,10.8-3.3c14.3-3,26.5-1.8,36.5,3.7C149.9,98.8,154.6,109.2,152.6,123.9z"/>
		<path class="st3" d="M138.5,92.5c-10-5.5-22.2-6.7-36.5-3.7c-3.6,0.8-7.2,1.9-10.8,3.3l0.2,17.2c1.9-0.9,3.9-1.7,6-2.3
			c-4.1,18.2-7.4,36.2-9.9,54.2c-1.2,8.3-2.1,16.6-3,24.8l15.8-3.3c12.5-2.7,23.9-9.8,34.1-21.3s16.3-24,18.2-37.5
			C154.6,109.2,149.9,98.8,138.5,92.5z M135.1,127.8c-1.2,7.9-4.6,15.2-10.3,22c-5.7,6.7-12.3,11.3-19.7,13.7
			c0.9-10.1,1.8-17.8,2.5-23.3c1.5-10.8,3.6-20.8,6.3-30l-7.2-5c8.4-0.9,15.4,0.4,20.8,3.8C133.8,113.1,136.3,119.3,135.1,127.8z"/>
		<path class="st2" d="M127.5,109c-5.4-3.4-12.4-4.7-20.8-3.8l7.2,5c-2.7,9.2-4.8,19.2-6.3,30c-0.7,5.5-1.6,13.2-2.5,23.3
			c7.4-2.4,14-7,19.7-13.7c5.7-6.8,9.1-14.1,10.3-22C136.3,119.3,133.8,113.1,127.5,109z M123.7,138.3c-0.8,5.6-2.8,10.8-6.1,15.7
			c-1.5,1.3-3.1,2.4-4.7,3.4c-1.6,1-3.3,1.8-5,2.5c0.4-4.4,0.7-8.3,1.1-11.6c0.3-3.3,0.7-6.2,1-8.7c0.6-3.4,1.1-6.7,1.7-10
			c0.6-3.2,1.2-6.5,2-9.7l3,1.6c4.2,2.7,6.5,6.4,7.1,11c0.1,0.9,0.1,1.8,0.1,2.8S123.8,137.3,123.7,138.3z"/>
	</g>
	<g class="st4">
		<path class="st2" d="M182.2,230.8l-7.7,1.6l-1.2,8.3l-22.1,4.7l0.7-5.5c-3,2.4-6,4.3-9,5.9c-3.1,1.6-6.3,2.7-9.7,3.4
			c-0.4,0.1-0.9,0.2-1.3,0.3c-0.4,0-0.8,0.1-1.2,0.2c-9.6,1.2-16.4-3.2-20.3-13.2c-1.3-3.3-2.1-6.9-2.6-10.8
			c-0.7-6-0.6-12.8,0.4-20.4c1.8-12.9,6.5-24.9,14.1-36c1.7-2.5,3.4-4.7,5.1-6.7s3.5-3.9,5.4-5.7c8.5-11.4,18.2-18.3,29.2-20.7
			c1.4-0.3,2.7-0.5,3.9-0.7c13.2-1.6,22.4,4,27.8,17l-9.2,9c0,0.2,0.1,0.3,0.1,0.4c0.1,0.1,0.2,0.2,0.3,0.4l-20.2,19.9
			c-2.4-7.7-6.8-11.2-13.2-10.4c-0.2,0-0.5,0.1-0.7,0.1s-0.5,0.1-0.8,0.2c-0.8,0.2-1.5,0.4-2.3,0.7c-0.7,0.3-1.5,0.7-2.1,1.1
			c-1.5,2.7-2.7,5.6-3.7,8.5c-0.9,2.9-1.7,6-2.2,9.2c-0.3,2.4-0.5,4.6-0.5,6.6s0,3.9,0.3,5.6c0.2,1.5,0.5,2.9,0.9,4.2
			c1.5,4.5,4.3,6.4,8.5,5.9l1-0.1c1.8-0.4,3.3-0.9,4.6-1.3c0.7-1.8,1.3-3.8,1.8-6.1c0.5-2.2,1-4.8,1.3-7.6c0.2-0.8,0.3-1.7,0.4-2.7
			s0.1-2,0.2-3.1l0.4-3.1l8.2-3.1c0-0.5,0-1.1,0.1-1.7c0-0.6,0.1-1.2,0.2-1.9l0.4-3.1l22.9-8.9L182.2,230.8z"/>
		<path class="st3" d="M187.5,175.1l-17.7,6.8c-0.2,2.4-0.4,4.6-0.7,6.5c-1.8,12.8-5.3,21.1-10.5,24.7c-2.2,1.5-5.2,2.7-8.9,3.5
			c-5.9,1.2-9.8-1.1-11.7-6.9c-1.5-4.5-1.7-10.3-0.7-17.4c1-7.1,3.2-13.7,6.6-19.7c4.1-7.4,9.2-11.7,15.3-13.1
			c8.2-1.8,13.5,1,15.8,8.3l15.4-15.3c-4.9-12-14.4-16.5-28.7-13.5c-10.9,2.3-20.4,9.5-28.6,21.5c-7.2,10.6-11.7,22.1-13.5,34.4
			c-1.7,12-1,22,2,30c3.9,10,10.8,13.9,20.8,11.7c7.9-1.7,15.1-5.8,21.6-12.4l-1.2,8.1l17.1-3.7L187.5,175.1z"/>
	</g>
	<g>
		<path class="st2" d="M193.3,89.2c-0.5-3.1-1.5-5.9-3.1-8.4c-0.2-0.3-0.3-0.6-0.5-0.8s-0.3-0.5-0.5-0.7c-4.1-5.4-9.5-6.7-16.1-4v4
			c-1.9,0.6-3.8,1.5-5.6,2.9c-1.5,1.2-3,2.7-4.6,4.3c-3.7,4.9-6.1,10.8-7.1,17.5c-0.1,1.2-0.3,2.4-0.3,3.5c0,1.2,0,2.3,0,3.4
			c0,0.2-0.1,0.4-0.1,0.6s-0.1,0.4-0.1,0.6c-1,7.2,0,13.3,3.1,18.2c0.1,0.2,0.3,0.4,0.4,0.6c0.2,0.2,0.3,0.4,0.5,0.6
			c3.1,4,7.2,5.4,12.3,4c2.3-0.6,4.5-1.7,6.7-3.4c1.1-0.8,2.1-1.8,3.1-2.8s1.9-2.2,2.9-3.4c2-2.6,3.7-5.4,5-8.3c1.3-2.9,2.3-6,3-9.4
			v0.1c0.3-1.6,0.5-3.1,0.6-4.6c0.1-1.5,0.1-2.9,0-4.3C193.6,95.7,193.7,92.3,193.3,89.2z M191.6,99.9c-1.2,6.2-3.7,11.7-7.5,16.7
			c-3.6,4.8-7.7,7.8-12.1,9.1c-4.9,1.4-8.9-0.1-11.8-4.7c-2.9-4.5-3.9-10-2.9-16.7c0.9-6.1,3.1-11.5,6.6-16.2
			c3.2-4.1,6.7-6.5,10.5-7.2v-4.1c6-2.4,11-0.6,14.8,5.5C192.2,87,193,92.9,191.6,99.9z"/>
		<path class="st5" d="M174.4,76.8v4.1c-3.8,0.7-7.3,3.1-10.5,7.2c-3.5,4.7-5.7,10.1-6.6,16.2c-1,6.7,0,12.2,2.9,16.7
			c2.9,4.6,6.9,6.1,11.8,4.7c4.4-1.3,8.5-4.3,12.1-9.1c3.8-5,6.3-10.5,7.5-16.7c1.4-7,0.6-12.9-2.4-17.6
			C185.4,76.2,180.4,74.4,174.4,76.8z M183.5,100.4c-0.9,3.2-2.4,6.2-4.6,9c-2.2,2.8-4.3,4.8-6.4,5.8c-2.8,1.3-5.1,0.7-6.6-1.9
			c-1.5-2.3-1.9-5.3-1.1-8.9c0.7-3.2,2.1-6,3.9-8.5c1.9-2.5,4.1-3.9,6.4-4.3l0-4.3c3.1-1.2,5.7-0.2,7.8,3.2
			C184.5,93,184.7,96.3,183.5,100.4z"/>
		<path class="st2" d="M175.1,87.3l0,4.3c-2.3,0.4-4.5,1.8-6.4,4.3c-1.8,2.5-3.2,5.3-3.9,8.5c-0.8,3.6-0.4,6.6,1.1,8.9
			c1.5,2.6,3.8,3.2,6.6,1.9c2.1-1,4.2-3,6.4-5.8c2.2-2.8,3.7-5.8,4.6-9c1.2-4.1,1-7.4-0.6-9.9C180.8,87.1,178.2,86.1,175.1,87.3z
			 M178.2,108.1c-0.8,0.9-1.4,1.7-2.1,2.4c-0.7,0.7-1.3,1.3-2,1.8c-0.6,0.5-1.3,0.9-1.9,1.2c-1.1,0.4-2,0.6-2.8,0.5
			c-0.8-0.1-1.5-0.6-2.1-1.4c-0.1-0.1-0.2-0.2-0.2-0.3c-0.1-0.1-0.1-0.2-0.2-0.3c-0.3-0.4-0.5-0.8-0.7-1.2c0.3-1,0.7-1.9,1.2-2.8
			s1-1.7,1.6-2.5c0.3-0.4,0.7-0.8,1-1.1c0.4-0.3,0.7-0.6,1.1-0.9c1.4-1.1,2.9-1.7,4.7-2l0.1-4.3c1.9-0.3,3.5,0.4,4.9,2.2
			c0.1,0.1,0.2,0.3,0.3,0.4c0.1,0.1,0.2,0.3,0.3,0.4c0.1,0.1,0.2,0.3,0.3,0.5c0.1,0.2,0.2,0.4,0.3,0.6
			C181.2,103.7,179.9,106,178.2,108.1z"/>
	</g>
	<g class="st4">
		<path class="st2" d="M228,99.2c-0.7,5-2.7,9.7-6.1,14.1c-0.6,0.7-1.2,1.4-1.8,2s-1.2,1.2-1.7,1.8c-0.1,0.1-0.2,0.2-0.2,0.3
			c-0.1,0.1-0.1,0.2-0.1,0.2c-3.6,4.7-7.8,7.5-12.5,8.5c-0.2,0.1-0.5,0.1-0.7,0.1s-0.5,0.1-0.7,0.1c-4.1,0.5-7.3-1.1-9.4-4.7
			c-1.1-2-1.8-4.1-2.1-6.5c-0.1-1-0.2-2-0.2-3.1s0.1-2.2,0.3-3.4l3.3-23.4l3.3-0.5l0.6-3.8l10-1.6l-3.4,23.3c-0.1,0.7-0.2,1.3-0.2,2
			c0,0.6,0,1.2,0.1,1.8c0.1,0.4,0.1,0.9,0.2,1.3c0.1,0.4,0.2,0.8,0.4,1.2c0.6,1.8,1.7,2.6,3.3,2.4l0.5-0.1c0.2,0,0.4-0.1,0.6-0.1
			c0.2-0.1,0.4-0.1,0.6-0.2c0.7-1.5,1.2-3.2,1.5-4.9l3.4-23.9l3.3-0.5l0.6-3.8l10.4-1.6L228,99.2z"/>
		<path class="st5" d="M230,77.4l-8.2,1.2l-3.2,22.7c-0.4,2.5-1.2,4.8-2.4,6.7c-1.5,2.4-3.3,3.8-5.5,4.3c-2.3,0.5-3.8-0.4-4.7-2.8
			c-0.7-1.9-0.9-4.2-0.5-6.8l3.2-22.1l-7.7,1.2l-3.2,22.2c-0.7,5,0,9.1,1.9,12.4c2.2,3.7,5.5,5.1,9.9,4.2c4.3-0.9,8.2-3.6,11.6-7.9
			c3.1-4.1,5.1-8.5,5.7-13.3L230,77.4z"/>
	</g>
	<g>
		<path class="st2" d="M266.6,80.8c0.1-1.1,0-2.1-0.1-3c-0.8-4.7-5.2-6.5-13.2-5.2c-1.5,0.2-3,0.6-4.7,1c-0.3,0.1-0.7,0.2-1.2,0.3
			c-0.4,0.1-0.9,0.2-1.5,0.4c-0.2,0.1-0.4,0.2-0.6,0.2c-0.3,0.1-0.5,0.1-0.7,0.2c-0.3,0.1-0.5,0.1-0.8,0.2c-0.3,0.1-0.5,0.1-0.7,0.2
			c-0.6,0.2-1.1,0.3-1.5,0.4c-0.4,0.1-0.8,0.2-1.1,0.3c-1.9,0.4-3.9,1.1-6.2,2.1l0.2,3.2c-0.7,0.2-1.3,0.5-2,0.7
			c-0.7,0.3-1.4,0.5-2.1,0.8l0.5,10.4c0.4-0.2,0.9-0.4,1.3-0.6c0.4-0.2,0.8-0.3,1.3-0.5c-0.8,5.6-1.5,10.4-2.1,14.5
			c-0.6,4.1-1.1,7.5-1.5,10.1c-0.3,0-0.6,0-0.9,0s-0.6,0-0.9,0l-2.6,10.4c1.6-0.1,3.2-0.2,4.8-0.3c1.6-0.1,3.2-0.3,4.8-0.6
			c1.2-0.2,2.5-0.4,3.8-0.7s2.6-0.6,3.9-0.9c2.1-0.5,4.1-1.3,5.9-2.2c1.8-0.9,3.6-2,5.2-3.4c2-1.7,3.5-3.5,4.6-5.4
			c3.6-3.2,5.6-7,6.2-11.4c0.1-1,0.1-2-0.1-3c-0.4-2.6-1.9-4.6-4.4-6c1.9-2,3.4-4,4.5-6C265.7,85,266.4,82.9,266.6,80.8z
			 M263.5,102.5c-0.4,3.9-2.4,7.4-6.1,10.5c-3.1,2.6-6.6,4.3-10.5,5.3c-6.1,1.5-11.4,2.3-16.1,2.5l2-7.9c0.6,0,1.2,0,1.9-0.1
			c0.9-5.4,2.3-14.5,4.2-27.4c-1.1,0.4-2.1,0.8-3,1.2l-0.3-8c1.5-0.7,3.1-1.2,4.8-1.6c0.8-0.2,2.2-0.6,4-1.1
			c1.8-0.5,3.2-0.9,4.1-1.1c12.1-2.9,17.7-0.8,16.9,6.4c-0.5,4.2-2.9,8.4-7.4,12.5C262.1,95.3,263.8,98.3,263.5,102.5z"/>
		<path class="st5" d="M265.4,81.2c0.8-7.2-4.8-9.3-16.9-6.4c-0.9,0.2-2.3,0.6-4.1,1.1c-1.8,0.5-3.2,0.9-4,1.1
			c-1.7,0.4-3.3,0.9-4.8,1.6l0.3,8c0.9-0.4,1.9-0.8,3-1.2c-1.9,12.9-3.3,22-4.2,27.4c-0.7,0.1-1.3,0.1-1.9,0.1l-2,7.9
			c4.7-0.2,10-1,16.1-2.5c3.9-1,7.4-2.7,10.5-5.3c3.7-3.1,5.7-6.6,6.1-10.5c0.3-4.2-1.4-7.2-5.5-8.8
			C262.5,89.6,264.9,85.4,265.4,81.2z M255.2,104c-0.3,1.6-1.4,3.1-3.5,4.5c-1.7,1.1-3.4,1.9-5.2,2.3c-0.5,0.1-2,0.3-4.2,0.7
			l1.4-10.6c1.6-0.4,2.5-0.7,2.7-0.8c2.3-0.5,4.2-0.6,5.9-0.2C254.4,100.5,255.4,101.8,255.2,104z M256.3,85.5
			c-0.4,3.9-4.2,6.8-11.4,8.6h-0.1l1.4-8l-4.2-1.6c0.8-0.2,2-0.5,3.5-0.9C253,81.7,256.7,82.3,256.3,85.5z"/>
		<path class="st2" d="M245.5,83.6c-1.5,0.4-2.7,0.7-3.5,0.9l4.2,1.6l-1.4,8h0.1c7.2-1.8,11-4.7,11.4-8.6
			C256.7,82.3,253,81.7,245.5,83.6z M251.2,90c0,0.1,0,0.2,0,0.3v0.1c-0.7,0.4-1.5,0.8-2.3,1.1c-0.8,0.4-1.8,0.7-2.8,1l0.7-4.1
			c2.8-0.2,4.2,0.2,4.4,1.4C251.2,89.8,251.2,89.9,251.2,90z"/>
		<path class="st2" d="M252.3,99.9c-1.7-0.4-3.6-0.3-5.9,0.2c-0.2,0.1-1.1,0.4-2.7,0.8l-1.4,10.6c2.2-0.4,3.7-0.6,4.2-0.7
			c1.8-0.4,3.5-1.2,5.2-2.3c2.1-1.4,3.2-2.9,3.5-4.5C255.4,101.8,254.4,100.5,252.3,99.9z M250,108.4c-0.6,0.2-1.1,0.5-1.7,0.7
			c-0.5,0.2-1.1,0.3-1.6,0.6c-0.1,0.1-0.5,0.1-1,0.2c-0.5,0.1-1.2,0.2-2,0.3l0.6-4.4c1.3-0.2,2.5-0.2,3.6,0.1h-0.1
			c1.3,0.4,2,1.1,2.2,2.1V108.4z"/>
	</g>
	<g class="st4">
		<path class="st2" d="M287.2,119.3c-0.4,0-0.9,0.1-1.5,0.2s-1.2,0.2-1.8,0.3l-1.2,3.4c-0.6,0.1-1.3,0.2-2.1,0.3
			c-0.8,0.1-1.6,0.2-2.5,0.3c-0.9,0.1-1.8,0.2-2.8,0.3c-1,0.1-1.9,0.2-2.8,0.3l-2.7,0.2c-0.7,0.1-1.4,0.1-2.1,0.2
			c-0.7,0-1.5,0.1-2.2,0.1s-1.5,0.1-2.2,0.1s-1.3,0-1.9,0c0.4-1.8,0.8-3.7,1.2-5.6c0.4-1.9,0.8-3.8,1.3-5.7c0.4-1.9,0.9-3.8,1.3-5.6
			c0.5-1.9,0.9-3.6,1.4-5.3c0.5-1.8,1-3.6,1.5-5.5c0.6-1.9,1.1-3.8,1.7-5.7c0.6-1.9,1.2-3.8,1.8-5.7c0.6-1.9,1.2-3.7,1.8-5.4
			l3.1-0.1c0.2-0.7,0.5-1.3,0.7-2c0.2-0.6,0.4-1.3,0.6-1.9l10.9-0.2c-0.7,2-1.3,4-1.9,6s-1.2,4-1.8,5.9c-0.6,1.9-1.1,3.8-1.7,5.7
			c-0.5,1.8-1,3.6-1.5,5.2c-0.4,1.6-0.8,3.3-1.3,4.9s-0.8,3.3-1.2,5h0.8c0.6,0,1.3,0,1.9-0.1s1.3-0.1,1.9-0.1
			c0.9-0.1,1.9-0.2,3.1-0.4c1.2-0.2,2.5-0.4,3.9-0.6L287.2,119.3z"/>
		<path class="st5" d="M289.5,109.4c-2,0.3-3.9,0.6-5.8,0.8c-1.9,0.1-3.8,0.2-5.6,0.2c0.9-3.9,1.8-7.6,2.7-11
			c1.8-6.5,3.9-13.7,6.5-21.7l-8.6,0.2c-2.4,6.9-4.5,13.9-6.4,20.9c-1.8,6.8-3.5,13.9-4.9,21.2c2.3,0,4.8-0.2,7.4-0.4l2.7-0.2
			c3.6-0.3,6.6-0.7,9-1.1L289.5,109.4z"/>
	</g>
	<g class="st4">
		<path class="st2" d="M333.8,92.5c-0.5,0-1.1-0.1-1.7-0.1c-0.6-0.1-1.2-0.1-1.8-0.1l-1.6,3.8c-0.7,0-1.5-0.1-2.3-0.2
			s-1.6-0.1-2.5-0.2s-1.7-0.1-2.5-0.1s-1.5-0.1-2.2-0.1l-2.2-0.1c-0.2,0.4-0.4,0.8-0.5,1.2c-0.2,0.4-0.3,0.8-0.5,1.2c1,0,2,0,2.9,0
			s1.9,0,2.8,0c0.5,0,1.2,0.1,1.8,0.1c0.7,0,1.4,0.1,2.1,0.1c0.7,0.1,1.4,0.1,2.1,0.2s1.3,0.1,1.9,0.2l-4.4,11
			c-0.6-0.1-1.2-0.1-1.8-0.2s-1.2-0.1-1.8-0.2l-1.5,3.9c-1.5-0.2-2.8-0.3-4.2-0.4c-1.3-0.1-2.6-0.2-3.7-0.2c-0.3,0-0.7,0-1.1,0
			s-0.7,0-1.1,0c-0.2,0.4-0.3,0.8-0.5,1.3c-0.1,0.4-0.3,0.9-0.4,1.3c1.1,0,2.2,0,3.3,0c1.1,0,2.2,0,3.3,0.1c0.6,0,1.3,0.1,2.1,0.1
			c0.8,0,1.6,0.1,2.3,0.1c0.8,0.1,1.6,0.1,2.3,0.2c0.8,0,1.4,0.1,2.1,0.2l-4.4,11c-0.6,0-1.1-0.1-1.8-0.2c-0.6-0.1-1.2-0.1-1.8-0.2
			l-1.6,3.9c-1-0.1-2.1-0.2-3.2-0.3s-2.3-0.2-3.5-0.2c-1.2-0.1-2.3-0.1-3.5-0.2c-1.2,0-2.2-0.1-3.3-0.1c-1,0-2.1-0.1-3.3-0.1
			c-1.1,0-2.3,0-3.5-0.1c-1.2,0-2.4,0-3.5,0c-1.2,0-2.3,0-3.3,0.1c0.6-1.6,1.1-3.2,1.8-4.9c0.6-1.7,1.2-3.3,1.8-5
			c0.6-1.7,1.2-3.3,1.8-4.9c0.6-1.6,1.2-3.1,1.8-4.6c1-2.5,2.1-5.1,3.2-7.6s2.2-5.1,3.3-7.7l-3.5-0.3l3.8-10.4
			c0.6,0.1,1.3,0.1,1.9,0.2s1.2,0.1,1.8,0.1l1.5-3.8c1.7,0.1,3.5,0.3,5.3,0.4s3.5,0.2,5.2,0.3c1.7,0.1,3.3,0.2,4.9,0.2
			c1.6,0.1,3,0.1,4.4,0.2c0.8,0,1.7,0,2.6,0s1.9,0,2.9,0s2,0,3,0s2,0,2.9,0L333.8,92.5z"/>
		<path class="st5" d="M336.9,82.9c-3.6,0-7,0-10.2-0.1c-5.4-0.2-11.6-0.5-18.6-1l-3,7.9l3.6,0.3c-2.5,5.6-4.8,11.1-7,16.5
			c-2.3,5.8-4.6,11.8-6.8,18.1c4.2-0.1,8.4,0,12.4,0.1c4.1,0.1,8.2,0.3,12.2,0.7l3.3-8.5c-2.5-0.2-5-0.4-7.6-0.4
			c-2.6-0.1-5.2-0.1-7.8,0c0.4-1.4,0.8-2.8,1.4-4.2c0.6-1.4,1.2-2.9,2-4.3c2.3-0.1,4.6-0.1,6.9-0.1c2.3,0.1,4.5,0.2,6.7,0.5l3.4-8.5
			c-2.2-0.2-4.5-0.3-6.7-0.4s-4.5-0.1-6.8,0c0.5-1.8,1.2-3.5,1.8-5.3c0.5-1.2,1-2.3,1.4-3.2c2.4,0,4.8,0,7,0.1
			c2.7,0.1,5.5,0.2,8.3,0.4L336.9,82.9z"/>
	</g>
	<g>
		<path class="st2" d="M228.8,141.8c-0.5-4.1-3.4-6.4-8.9-7c-1-0.1-2.2-0.1-3.4-0.1s-2.7,0.1-4.2,0.3c-2.5,0.3-5.3,0.7-8.5,1.4
			c-1.6,0.3-3.1,0.7-4.6,1.1c-1.5,0.4-2.9,0.9-4.3,1.4l-0.1,3.3c-1.3,0.4-2.7,0.9-4.1,1.4l0.1,10.7c0.8-0.3,1.4-0.5,2-0.8
			c0.6-0.3,1.1-0.4,1.6-0.6c-0.5,2.5-1.1,5.2-1.7,8c-0.6,2.8-1.2,5.7-1.8,8.9c-0.6,3.2-1.2,6.4-1.9,9.7c-0.7,3.4-1.3,6.8-2,10.2
			l11.3-2.4c0.1-0.5,0.2-1,0.3-1.7c0.1-0.7,0.2-1.4,0.4-2.2l3.5-0.7c0.1-0.6,0.2-1.2,0.3-2c0.1-0.8,0.3-1.6,0.4-2.5
			c0.3,0.2,0.6,0.4,0.8,0.6s0.4,0.4,0.6,0.6c1.4,1.3,2.5,3.6,3.3,7l12.1-3.1c-0.1-0.6-0.2-1.2-0.3-1.7c-0.1-0.5-0.2-1.1-0.4-1.6
			l5-1.3c-0.5-3.1-1.5-5.7-2.8-7.9s-3.1-4-5.3-5.4c0.6-0.6,1.2-1.3,1.7-1.9s1-1.2,1.5-1.9c4.2-3.8,7.1-8.4,8.8-13.8h-0.1
			c0.2-0.4,0.3-0.9,0.4-1.3c0.1-0.4,0.2-0.8,0.2-1.3C228.9,144,228.9,142.9,228.8,141.8z M227.5,145.3c-0.1,0.9-0.3,1.7-0.5,2.4
			c-2.4,7.5-7.2,13.3-14.5,17.4c5.7,2.3,9.1,6.5,10.2,12.6l-9.6,2.6c-0.7-3-1.9-5.2-3.4-6.6c-1.2-1.2-3.2-2.4-6.2-3.6
			c-1.1,5.1-1.8,9-2.2,11.5l-8.8,1.8c2.8-14.4,5.4-26.7,7.6-36.8c-1.4,0.2-2.7,0.6-3.9,1.1l-0.1-8.2c2-0.6,4.5-1.3,7.5-1.9
			c7.1-1.4,12.4-2,15.9-1.6C225.7,136.7,228.3,139.8,227.5,145.3z"/>
		<path class="st5" d="M219.5,136c-3.5-0.4-8.8,0.2-15.9,1.6c-3,0.6-5.5,1.3-7.5,1.9l0.1,8.2c1.2-0.5,2.5-0.9,3.9-1.1
			c-2.2,10.1-4.8,22.4-7.6,36.8l8.8-1.8c0.4-2.5,1.1-6.4,2.2-11.5c3,1.2,5,2.4,6.2,3.6c1.5,1.4,2.7,3.6,3.4,6.6l9.6-2.6
			c-1.1-6.1-4.5-10.3-10.2-12.6c7.3-4.1,12.1-9.9,14.5-17.4c0.2-0.7,0.4-1.5,0.5-2.4C228.3,139.8,225.7,136.7,219.5,136z
			 M217.9,149.2c-0.4,2.7-2,5.2-4.8,7.4c-2.4,1.8-5,3-7.7,3.6l2.5-12.4l-4-1.9c1.8-0.3,3.1-0.5,4-0.7
			C215.2,143.7,218.5,145,217.9,149.2z"/>
		<path class="st2" d="M207.9,145.2c-0.9,0.2-2.2,0.4-4,0.7l4,1.9l-2.5,12.4c2.7-0.6,5.3-1.8,7.7-3.6c2.8-2.2,4.4-4.7,4.8-7.4
			C218.5,145,215.2,143.7,207.9,145.2z M212.5,153.5c0,0.2,0,0.4,0,0.6c-0.1,0.7-0.3,1.3-0.6,2c-0.8,0.6-1.6,1.1-2.5,1.5
			c-0.9,0.4-1.8,0.7-2.7,1l1.7-8c2.5,0.1,3.9,0.9,4.1,2.4C212.5,153.2,212.5,153.3,212.5,153.5z"/>
	</g>
	<g class="st4">
		<path class="st2" d="M264.1,141.2c-0.5,0-1.1,0.1-1.7,0.1s-1.2,0-1.8,0.1l-1.2,4c-0.7,0-1.5,0.1-2.3,0.1s-1.6,0.1-2.5,0.1
			c-0.8,0-1.7,0.1-2.5,0.2c-0.8,0.1-1.5,0.1-2.2,0.2l-2.2,0.2c-0.1,0.4-0.3,0.9-0.4,1.3c-0.1,0.4-0.2,0.8-0.3,1.3
			c1-0.1,1.9-0.3,2.9-0.4s1.9-0.2,2.8-0.3c0.5,0,1.2-0.1,1.8-0.1c0.7,0,1.4-0.1,2.1-0.1c0.7,0,1.4-0.1,2.1-0.1s1.3,0,1.9,0
			l-3.1,11.4c-0.6,0-1.2,0-1.8,0c-0.6,0-1.2,0-1.8,0l-1.1,4c-1.5,0-2.9,0-4.2,0.1s-2.6,0.1-3.7,0.2c-0.3,0-0.7,0.1-1.1,0.1
			c-0.4,0-0.7,0.1-1.1,0.1c-0.1,0.4-0.2,0.9-0.3,1.3c-0.1,0.5-0.2,0.9-0.3,1.4c1.1-0.2,2.2-0.3,3.3-0.4c1.1-0.1,2.2-0.2,3.3-0.3
			c0.6,0,1.3-0.1,2.1-0.1c0.8-0.1,1.5-0.1,2.3-0.1s1.6-0.1,2.3-0.1c0.8,0,1.4-0.1,2.1-0.1l-3.1,11.4c-0.6,0-1.1,0-1.8,0
			c-0.6,0-1.2,0-1.8,0.1l-1.1,4c-1,0-2.1,0.1-3.2,0.1c-1.1,0-2.3,0.1-3.5,0.2c-1.2,0.1-2.3,0.2-3.5,0.2c-1.1,0.1-2.2,0.2-3.2,0.3
			s-2.1,0.2-3.2,0.3c-1.1,0.1-2.3,0.2-3.5,0.4c-1.2,0.1-2.4,0.3-3.5,0.4c-1.2,0.1-2.3,0.3-3.3,0.4c0.4-1.6,0.8-3.3,1.2-5.1
			s0.8-3.5,1.2-5.2s0.8-3.4,1.3-5.1c0.4-1.7,0.8-3.3,1.2-4.8c0.7-2.6,1.5-5.3,2.3-7.9c0.8-2.6,1.6-5.3,2.4-8l-3.6,0.1l2.6-10.7
			c0.6,0,1.3,0,1.9-0.1s1.2,0,1.8-0.1l1-4c1.8-0.1,3.5-0.1,5.3-0.2c1.8-0.1,3.5-0.2,5.2-0.3s3.3-0.2,4.9-0.3c1.6-0.1,3-0.2,4.4-0.3
			c0.8-0.1,1.7-0.2,2.6-0.3s1.9-0.2,2.9-0.3s2-0.2,3-0.3s2-0.2,2.9-0.3L264.1,141.2z"/>
		<path class="st5" d="M266,131.2c-3.6,0.4-7,0.8-10.1,1.1c-5.3,0.5-11.5,0.8-18.5,1.2l-2,8.2l3.6-0.1c-1.8,5.9-3.5,11.6-5,17.2
			c-1.6,6-3.1,12.3-4.6,18.8c4.2-0.6,8.3-1,12.3-1.4c4.1-0.4,8.2-0.6,12.2-0.8l2.3-8.8c-2.5,0.1-5,0.2-7.5,0.5
			c-2.6,0.2-5.1,0.5-7.7,0.9c0.2-1.4,0.5-2.9,0.9-4.4s0.9-3,1.5-4.5c2.3-0.4,4.6-0.7,6.8-0.9c2.3-0.2,4.5-0.3,6.7-0.3l2.4-8.9
			c-2.3,0.1-4.5,0.2-6.7,0.4s-4.5,0.5-6.8,0.8c0.3-1.8,0.7-3.6,1.2-5.4c0.4-1.3,0.7-2.4,1-3.4c2.4-0.3,4.7-0.6,7-0.8
			c2.7-0.2,5.5-0.4,8.3-0.5L266,131.2z"/>
	</g>
	<g class="st4">
		<path class="st2" d="M274.3,183.2l1.3-8.1c-0.7-0.1-1.5-0.3-2.2-0.4c-0.8-0.1-1.5-0.2-2.3-0.3l-2,4.2l-3-0.4l-2,4l-11.4-1.1
			c1.5-2.7,3.2-5.8,5.1-9.2c1.9-3.4,4.1-7.1,6.4-11s4.7-8,7.3-12.2c2.6-4.3,5.2-8.6,8-13.1l2.6,0.2c0.4-0.6,0.8-1.3,1.2-1.9
			c0.4-0.6,0.8-1.3,1.3-2l14,0.9c-1.5,6.5-2.9,13.4-4,20.9c-1.1,7.4-2.1,15.3-2.9,23.6l-4.8,0.8l-0.3,2.9L274.3,183.2z"/>
		<path class="st5" d="M290.3,176.3c1.4-16,3.6-30.1,6.5-42.3l-12-0.8c-11,17.8-19.4,32.2-25.2,43.1l8.9,0.9l3.7-7.7
			c0.7,0,1.4-0.1,2-0.1c2.9,0,5.5,0.4,7.9,1l-1.2,7.6L290.3,176.3z"/>
		<path class="st2" d="M283.4,162.5c-1.7-0.3-3.6-0.5-5.6-0.6c-0.5,0-1.1,0.1-1.8,0.1c4.6-8.2,8.2-14.3,10.6-18.4
			c-0.7,2.7-1.3,5.8-1.9,9.5C284.3,156.3,283.8,159.4,283.4,162.5z"/>
	</g>
	<g class="st4">
		<path class="st2" d="M328,148.6l-1.7,3.8l-5.7-0.6c-1.3,2.7-2.5,5.4-3.7,8s-2.2,5.1-3.2,7.4c-0.5,1.1-1,2.3-1.5,3.6
			s-1,2.5-1.5,3.8s-1,2.5-1.4,3.8s-0.9,2.4-1.3,3.5l-3.7-0.7c-0.3,0.7-0.5,1.5-0.8,2.1c-0.3,0.7-0.5,1.3-0.7,2l-11.3-1.7
			c0.5-1.4,1-2.8,1.5-4.2c0.5-1.5,1.1-2.9,1.7-4.4s1.1-3,1.7-4.4s1.1-2.8,1.6-4.2c1.1-2.7,2.3-5.4,3.5-8.1c1.2-2.7,2.5-5.4,3.8-8.1
			l-9.5-0.9l5.1-10.9l3.4,0.4l1.8-3.8l30.3,2.9l-5.1,10.9L328,148.6z"/>
		<path class="st5" d="M316,146.1l14.8,1.5l3.9-8.4l-27.8-2.7l-4,8.4l9.5,0.9c-2.9,5.8-5.6,11.6-7.9,17.3
			c-2.2,5.3-4.2,10.6-6.1,16.1l8.8,1.4c1.6-4.3,3.4-8.8,5.2-13.3c2.3-5.6,5.1-11.7,8.2-18.1L316,146.1z"/>
	</g>
</g>
</svg>
