<svg version="1.1" id="Layer_1" xmlns="http://www.w3.org/2000/svg" x="0" y="0" viewBox="0 0 400 312.3" xml:space="preserve"><style>.st0{fill:#040a04}.st1{fill:#1cfb04}.st2{fill:#221e20}.st3{fill:#09c}.st4{enable-background:new}.st5{fill:#ff3}</style><g id="svg"><path class="st0" d="M287.4 25c-1.4 2.7-3.7 10.5 1.6 10.2 2.7-.1 6.5-4.2 8.8-5.5 6.1-3.4 11.3-2.6 18.3-3.3 9.3-.8 11.9-8.8 10.1-17.1C324.3.2 315-1.2 306.9.8c-8 2.1-17.2 6.7-22.2 13.6-1.6 2.3-3.7 5.7-3.2 8.7.4 2.8 4.4 4.8 5.9 1.9z"/><path class="st0" d="M399.9 53c-1-2.8-2.9-1.2-4.5-2.6-.3-.3-.7-3.8-1-4.3-.9-1.2-1.3-1.5-2.6-2.1-2.8-1.2-7.1-.8-10-.6-3.4.2-6.9.9-10.1 1.9-1.8.5-4 2.1-5.9 2.1-3 0-2.1-1.7-4.4-4.1-2-2-4-2.5-6.9-2.8-6.5-.6-13.3 1.4-19.4 3.4-4.7 1.6-9.5 3.2-14.1 5.3-4.4 2-8.1 5.5-12.4 7.5-6.7 3.2-8.4-.1-13.9-3-4.5-2.4-10.2-3.3-15.3-2.5-5.5.9-10.6 3-15.2 6.1-1.2.8-11.1 8.9-12.6 7.3-.4-.4 5.1-10.2 5.7-12 1.8-4.9 2.7-9.1 3.4-14.2 1.2-7.6-.6-18.6-12.1-15.5-9.7 2.6-15.7 11.4-21.2 19.2-5.6 7.9-10.4 16.4-17.5 23.1-2-9.3-.9-19.6-5.4-28.3-3.5-6.3-12-12.7-19.5-11.9-8.9 1-14.8 12.1-19.7 18.7-2.3 3.1-4.4 6.2-6.6 9.4-1.9 2.9-4.4 7.8-7.3 9.8 1-4.5-.6-11.4-1.2-15.9-.7-5.3-1.3-11.3-4.2-16-3.5-5.9-9.6-8.3-16.3-6.1-4.8 1.6-8.6 7.3-10.6 11.7-4.3 9.6-3.9 21.5-9.4 30.1-3.3 5.1-5.8 10.3-11.1 13.9-6.3 4.3-12.4 3.2-19.1 1.1-4.3-1.4-8.1-2.6-12.2-4.4-6.3-2.7-12.8-7.5-20.1-6.1-12.3 2.5-9.6 15.8-5.7 23.9 5.9 12.2 15.7 20.8 24.5 30.9 3.6 4.1 7.2 11.4 5.1 17-1.9 4.8-8.2 7.8-12.6 9.9-9.8 4.7-20.4 7.3-30.3 11.7-9.5 4.4-21.4 9.2-26.2 19.7-3.1 6.9-2.9 13.9 2.4 19.3 4.2 4.3 8.6 9 14 11.9 12 6.4 26.4 5.7 39.1 2.7 5.9-1.4 11.3-3.2 17-5.6 5.1-2.1 9.8-8.3 14-2.4 6.5 9.2 10.3 22.8 13.1 33.5 1.5 5.7 2.4 11 1.6 17-.8 5.8-3.4 11.1-5.2 16.6-2 6.4-4.2 14.9-.7 21.1 2.1 3.7 6 6.7 8.8 9.7 9.1 9.5 22.1.8 30-6.2 9.4-8.2 18.1-17.6 28.4-24.7 9.3-6.4 27.4-15 36.6-5 12.6 13.7 15.9-6.2 20.1-14.5 1.9-3.7 5.2-9.8 9.1-4.9 2.8 3.4 4.8 9.5 6.5 13.5 3.8 8.7 7.7 16.7 14.3 23.5 3.9 4 7.6 9.4 12.8 11.7 5.4 2.4 12.5.9 15.1-4.9 2.2-4.9 1.6-11.2 1.9-16.5.3-6.7 1.2-13.3 2.2-19.9 1-7 1.7-14.4 3.8-21.2.8-2.6 2.5-11.3 5.1-11.4 1.6-.1 6.1 3 7.9 3.8 2.4 1.1 4.8 2.3 7.2 3.4 5.2 2.4 10 5.1 14.7 8.2 9.2 5.8 24.6 13.2 31.9-.3 2.2-4 2.9-10.6 3.8-15.2 1-5.1.2-10.2-2.3-14.7-5.1-9.5-12.8-17.8-20.2-25.6-7.5-8-18.5-21.6-4.4-29.3 5.3-2.9 11.8-3.3 17.6-4.2 6.6-.9 13.1-2 19.6-3.4 6-1.3 12.9-2.5 17.5-6.8 2.3-2.1 2.7-3.4 3.4-6.2.8-3 2.7-4.5 3.6-7.3 3.4-10.4-9.4-14.4-16.9-16.1-5.1-1.2-10.2-2.8-15.2-4.2-5.7-1.5-11.7-2.5-7.5-9.4 7.4-12.2 20.3-19.1 31.3-27.5 4.8-3.7 10.5-7.2 13.7-12.5 1.2-2 3-4.8 2.2-7.3z"/><path class="st0" d="M85 63.4c5.6 2.4 12 5.5 14.2-2.2 1.8-6.2 1.7-13.1-.5-19.1-5-12.8-16.8-20.9-30.8-19.1-12.2 1.6-26.5 11.4-18.8 25.4 7.9 14.2 23.3 9.7 35.9 15zM302.8 253.7c-2.9 1.5.2 6.8.8 8.6 1.1 3.4 1.5 6.5.7 9.9-1.2 5.1-3.2 10-1.6 15.1 2.8 8.9 18.7 22.1 27 12.5 7.3-8.5 3.5-22.6-2.4-30.4-3.8-4.9-16.9-19.6-24.5-15.7z"/><g><path class="st1" d="M293.1 18.5c5.3-1.6 10.1-1 15.5-.1 3.7.6 8.2 1.7 11.5-.6 6.8-4.7 2.5-13.2-4.3-14.3-8.4-1.4-18.2 3.4-24.4 8.6-1.3 1.1-7.5 6.7-6.5 8.8.9 1.8 6.1-1.8 8.2-2.4zM373.7 116.3c-7.2-2-30.9-4.1-31.6-14.8-.8-13.8 19.7-26.7 29.1-33.1 3.1-2.1 26.4-16 19-21.8-4.2-3.3-15.6.8-19.9 2.2-2.2.7-10.2 5.7-12.2 5-1.8-.7 2.8-5.3 1.7-7.8-4.4-9.9-34.3 3.9-40.1 7-5.4 2.8-11.5 9.2-18.1 8.1-3.8-.6-6.7-3.8-10-5.4-3.5-1.7-7-2.2-10.9-1.7-8.3 1-14.1 5.5-21.1 9.7-2.5 1.5-11.3 7.6-12.1 2-.4-3.1 3.8-8.2 5-10.8 2-4.2 3.7-8.7 4.7-13.3.9-4.4 2.6-14.2-3.5-15.9-12.6-3.5-23.5 17.4-29 25.3-3.3 4.7-20.5 28.9-24.9 15.9-1.2-3.6-.3-8.7-.5-12.5-.3-4.2-.8-8.3-1.8-12.4-1.2-4.7-3.2-11.9-8.2-14.1-15.4-6.8-37.9 52.7-46.7 43.2-2.3-2.4-1.5-8.1-1.5-11 .1-8.4 1.9-18-.6-26.1-1.2-3.9-4.4-7.8-8.9-7.1-5 .8-7.9 7.1-9.6 11.1-6 13.8-6 29.1-17 40.5C91.8 92.2 74.5 84 59.8 77c-5.4-2.6-12.6-6-17.1 0-2.9 3.9-1.7 9-.2 13.1 2.9 7.5 8.1 14.2 13.2 20.2 5.4 6.3 13 12 16.7 19.5 4.3 8.7 2.3 16.6-5.7 21.7-14.5 9.2-32.1 12.1-47.1 20.2C11.5 176.1.3 185 3 195.9c2.9 11.9 23 12.2 32.6 12.6 10.5.6 19.5-1.5 29.5-4.6 5.8-1.8 11.9-2.3 18-1.3 7 1.2 8.7 7.2 11.5 13.1 3.8 7.9 6.8 16.2 9.2 24.6 2 7.2 3.5 13.4 2 20.9-1.8 9-6.5 17.4-7.4 26.6-1.1 11.9 8.3 17.1 18.2 11.8 12.6-6.8 22.4-18.3 33.6-27.2 8.8-7 23.2-20.6 35.8-18.1 4.4.8 7.3 3.9 10.1 7.2 5.2 5.9 10.2 4.7 12.4-2.9 1.6-5.8 2.6-13.6 8.5-16.7 4.8-2.5 9 0 12.2 3.8 10.9 12.9 11.7 33.7 26.2 44 4.2 3.1 9.6 3.6 13.3-.7 4.6-5.3 3.3-14 3.7-20.5 1.1-15.4 4.7-32.2 11.9-45.9 1.3-2.5 2.8-5.1 4.9-7 3.6-3.2 5.4-1.6 9.1.8 5.8 3.8 12.1 6.1 18.3 9.2 9.8 5.1 29.8 20.8 36.7 2.7 4.9-12.8-8.7-24.5-16.5-32.4-7.8-8-20.4-17.9-20-30.4.4-13.8 15.2-18.4 26.5-20.8 9.4-2 19-3.2 28.2-6.1 5.2-1.6 12.3-3.6 15.9-8.1 7-8.5-8.1-12.7-13.7-14.2z"/><path class="st1" d="M69.2 57c5.9.4 10.1 1.3 15.8 3.1 4.7 1.5 7.2.5 7.1-4.7-.3-12.1-10.9-22.7-21.9-26.2-8.4-2.6-19.4.7-20 10.7-.6 10.1 10.2 16.5 19 17.1zM308.4 257.2c-6.2-3.1-.9 6.6-.5 9.6.5 5.3-2.2 10.1-2.3 15.4-.1 6.7 5.8 16.9 13.7 11.6 5.5-3.7 4.1-12.9 2.6-18.2-2.1-7.3-6.5-14.9-13.5-18.4z"/></g></g><path class="st2" d="M155.5 111.6c-.6-4.9-2.2-9.1-4.7-12.8-2.5-3.7-6-6.7-10.4-9.1-4.3-2.3-9.1-3.9-14.2-4.7-5.1-.8-10.6-.8-16.6-.1-1.2.2-2.3.3-3.5.5-1.2.2-2.4.4-3.6.7-3.9.7-8.5 2.2-13.7 4.2l-.1 6.9c-1.3.4-2.7.9-4.2 1.4s-3 1.1-4.6 1.7l.1 22.9c2.1-1 3.9-1.8 5.3-2.4-1.8 8.5-3.5 17-5 25.5s-2.9 17-4 25.4c-.3 2-.6 4.2-.9 6.6-.3 2.3-.6 4.7-.9 7.1-.3 2.4-.5 4.8-.8 7.1-.3 2.4-.5 4.6-.7 6.6l18.2-3.8c6.7-1.4 13-4 18.9-7.7 5.9-3.8 11.6-8.7 17.1-14.8.7-.8 1.4-1.6 2.1-2.5.7-.8 1.4-1.7 2-2.5.8-.8 1.6-1.6 2.3-2.4.7-.8 1.5-1.6 2.3-2.4 10.8-12.2 17.2-25.4 19.2-39.6.3-2.1.5-4.1.6-6.2.1-2 0-3.8-.2-5.6zm-2.9 12.3c-1.9 13.5-8 26-18.2 37.5s-21.6 18.6-34.1 21.3L84.5 186c.9-8.2 1.8-16.5 3-24.8 2.5-18 5.8-36 9.9-54.2-2.1.6-4.1 1.4-6 2.3l-.2-17.2c3.6-1.4 7.2-2.5 10.8-3.3 14.3-3 26.5-1.8 36.5 3.7 11.4 6.3 16.1 16.7 14.1 31.4z"/><path class="st3" d="M138.5 92.5c-10-5.5-22.2-6.7-36.5-3.7-3.6.8-7.2 1.9-10.8 3.3l.2 17.2c1.9-.9 3.9-1.7 6-2.3-4.1 18.2-7.4 36.2-9.9 54.2-1.2 8.3-2.1 16.6-3 24.8l15.8-3.3c12.5-2.7 23.9-9.8 34.1-21.3s16.3-24 18.2-37.5c2-14.7-2.7-25.1-14.1-31.4zm-3.4 35.3c-1.2 7.9-4.6 15.2-10.3 22-5.7 6.7-12.3 11.3-19.7 13.7.9-10.1 1.8-17.8 2.5-23.3 1.5-10.8 3.6-20.8 6.3-30l-7.2-5c8.4-.9 15.4.4 20.8 3.8 6.3 4.1 8.8 10.3 7.6 18.8z"/><path class="st2" d="M127.5 109c-5.4-3.4-12.4-4.7-20.8-3.8l7.2 5c-2.7 9.2-4.8 19.2-6.3 30-.7 5.5-1.6 13.2-2.5 23.3 7.4-2.4 14-7 19.7-13.7 5.7-6.8 9.1-14.1 10.3-22 1.2-8.5-1.3-14.7-7.6-18.8zm-3.8 29.3c-.8 5.6-2.8 10.8-6.1 15.7-1.5 1.3-3.1 2.4-4.7 3.4s-3.3 1.8-5 2.5c.4-4.4.7-8.3 1.1-11.6.3-3.3.7-6.2 1-8.7.6-3.4 1.1-6.7 1.7-10 .6-3.2 1.2-6.5 2-9.7l3 1.6c4.2 2.7 6.5 6.4 7.1 11 .1.9.1 1.8.1 2.8s-.1 2-.2 3z"/><g class="st4"><path class="st2" d="M182.2 230.8l-7.7 1.6-1.2 8.3-22.1 4.7.7-5.5c-3 2.4-6 4.3-9 5.9-3.1 1.6-6.3 2.7-9.7 3.4-.4.1-.9.2-1.3.3-.4 0-.8.1-1.2.2-9.6 1.2-16.4-3.2-20.3-13.2-1.3-3.3-2.1-6.9-2.6-10.8-.7-6-.6-12.8.4-20.4 1.8-12.9 6.5-24.9 14.1-36 1.7-2.5 3.4-4.7 5.1-6.7s3.5-3.9 5.4-5.7c8.5-11.4 18.2-18.3 29.2-20.7 1.4-.3 2.7-.5 3.9-.7 13.2-1.6 22.4 4 27.8 17l-9.2 9c0 .2.1.3.1.4.1.1.2.2.3.4l-20.2 19.9c-2.4-7.7-6.8-11.2-13.2-10.4-.2 0-.5.1-.7.1s-.5.1-.8.2c-.8.2-1.5.4-2.3.7-.7.3-1.5.7-2.1 1.1-1.5 2.7-2.7 5.6-3.7 8.5-.9 2.9-1.7 6-2.2 9.2-.3 2.4-.5 4.6-.5 6.6s0 3.9.3 5.6c.2 1.5.5 2.9.9 4.2 1.5 4.5 4.3 6.4 8.5 5.9l1-.1c1.8-.4 3.3-.9 4.6-1.3.7-1.8 1.3-3.8 1.8-6.1.5-2.2 1-4.8 1.3-7.6.2-.8.3-1.7.4-2.7s.1-2 .2-3.1l.4-3.1 8.2-3.1c0-.5 0-1.1.1-1.7 0-.6.1-1.2.2-1.9l.4-3.1 22.9-8.9-8.2 59.6z"/><path class="st3" d="M187.5 175.1l-17.7 6.8c-.2 2.4-.4 4.6-.7 6.5-1.8 12.8-5.3 21.1-10.5 24.7-2.2 1.5-5.2 2.7-8.9 3.5-5.9 1.2-9.8-1.1-11.7-6.9-1.5-4.5-1.7-10.3-.7-17.4 1-7.1 3.2-13.7 6.6-19.7 4.1-7.4 9.2-11.7 15.3-13.1 8.2-1.8 13.5 1 15.8 8.3l15.4-15.3c-4.9-12-14.4-16.5-28.7-13.5-10.9 2.3-20.4 9.5-28.6 21.5-7.2 10.6-11.7 22.1-13.5 34.4-1.7 12-1 22 2 30 3.9 10 10.8 13.9 20.8 11.7 7.9-1.7 15.1-5.8 21.6-12.4l-1.2 8.1 17.1-3.7 7.6-53.5z"/></g><path class="st2" d="M193.3 89.2c-.5-3.1-1.5-5.9-3.1-8.4-.2-.3-.3-.6-.5-.8s-.3-.5-.5-.7c-4.1-5.4-9.5-6.7-16.1-4v4c-1.9.6-3.8 1.5-5.6 2.9-1.5 1.2-3 2.7-4.6 4.3-3.7 4.9-6.1 10.8-7.1 17.5-.1 1.2-.3 2.4-.3 3.5v3.4c0 .2-.1.4-.1.6s-.1.4-.1.6c-1 7.2 0 13.3 3.1 18.2.1.2.3.4.4.6.2.2.3.4.5.6 3.1 4 7.2 5.4 12.3 4 2.3-.6 4.5-1.7 6.7-3.4 1.1-.8 2.1-1.8 3.1-2.8s1.9-2.2 2.9-3.4c2-2.6 3.7-5.4 5-8.3 1.3-2.9 2.3-6 3-9.4v.1c.3-1.6.5-3.1.6-4.6.1-1.5.1-2.9 0-4.3.7-3.7.8-7.1.4-10.2zm-1.7 10.7c-1.2 6.2-3.7 11.7-7.5 16.7-3.6 4.8-7.7 7.8-12.1 9.1-4.9 1.4-8.9-.1-11.8-4.7-2.9-4.5-3.9-10-2.9-16.7.9-6.1 3.1-11.5 6.6-16.2 3.2-4.1 6.7-6.5 10.5-7.2v-4.1c6-2.4 11-.6 14.8 5.5 3 4.7 3.8 10.6 2.4 17.6z"/><path class="st5" d="M174.4 76.8v4.1c-3.8.7-7.3 3.1-10.5 7.2-3.5 4.7-5.7 10.1-6.6 16.2-1 6.7 0 12.2 2.9 16.7 2.9 4.6 6.9 6.1 11.8 4.7 4.4-1.3 8.5-4.3 12.1-9.1 3.8-5 6.3-10.5 7.5-16.7 1.4-7 .6-12.9-2.4-17.6-3.8-6.1-8.8-7.9-14.8-5.5zm9.1 23.6c-.9 3.2-2.4 6.2-4.6 9-2.2 2.8-4.3 4.8-6.4 5.8-2.8 1.3-5.1.7-6.6-1.9-1.5-2.3-1.9-5.3-1.1-8.9.7-3.2 2.1-6 3.9-8.5 1.9-2.5 4.1-3.9 6.4-4.3v-4.3c3.1-1.2 5.7-.2 7.8 3.2 1.6 2.5 1.8 5.8.6 9.9z"/><path class="st2" d="M175.1 87.3v4.3c-2.3.4-4.5 1.8-6.4 4.3-1.8 2.5-3.2 5.3-3.9 8.5-.8 3.6-.4 6.6 1.1 8.9 1.5 2.6 3.8 3.2 6.6 1.9 2.1-1 4.2-3 6.4-5.8s3.7-5.8 4.6-9c1.2-4.1 1-7.4-.6-9.9-2.1-3.4-4.7-4.4-7.8-3.2zm3.1 20.8c-.8.9-1.4 1.7-2.1 2.4-.7.7-1.3 1.3-2 1.8-.6.5-1.3.9-1.9 1.2-1.1.4-2 .6-2.8.5-.8-.1-1.5-.6-2.1-1.4-.1-.1-.2-.2-.2-.3-.1-.1-.1-.2-.2-.3-.3-.4-.5-.8-.7-1.2.3-1 .7-1.9 1.2-2.8s1-1.7 1.6-2.5c.3-.4.7-.8 1-1.1.4-.3.7-.6 1.1-.9 1.4-1.1 2.9-1.7 4.7-2l.1-4.3c1.9-.3 3.5.4 4.9 2.2.1.1.2.3.3.4.1.1.2.3.3.4.1.1.2.3.3.5l.3.6c-.8 2.4-2.1 4.7-3.8 6.8z"/><g class="st4"><path class="st2" d="M228 99.2c-.7 5-2.7 9.7-6.1 14.1-.6.7-1.2 1.4-1.8 2s-1.2 1.2-1.7 1.8c-.1.1-.2.2-.2.3-.1.1-.1.2-.1.2-3.6 4.7-7.8 7.5-12.5 8.5-.2.1-.5.1-.7.1s-.5.1-.7.1c-4.1.5-7.3-1.1-9.4-4.7-1.1-2-1.8-4.1-2.1-6.5-.1-1-.2-2-.2-3.1s.1-2.2.3-3.4l3.3-23.4 3.3-.5.6-3.8 10-1.6-3.4 23.3c-.1.7-.2 1.3-.2 2 0 .6 0 1.2.1 1.8.1.4.1.9.2 1.3s.2.8.4 1.2c.6 1.8 1.7 2.6 3.3 2.4l.5-.1c.2 0 .4-.1.6-.1.2-.1.4-.1.6-.2.7-1.5 1.2-3.2 1.5-4.9l3.4-23.9 3.3-.5.6-3.8 10.4-1.6-3.3 23z"/><path class="st5" d="M230 77.4l-8.2 1.2-3.2 22.7c-.4 2.5-1.2 4.8-2.4 6.7-1.5 2.4-3.3 3.8-5.5 4.3-2.3.5-3.8-.4-4.7-2.8-.7-1.9-.9-4.2-.5-6.8l3.2-22.1-7.7 1.2-3.2 22.2c-.7 5 0 9.1 1.9 12.4 2.2 3.7 5.5 5.1 9.9 4.2 4.3-.9 8.2-3.6 11.6-7.9 3.1-4.1 5.1-8.5 5.7-13.3l3.1-22z"/></g><path class="st2" d="M266.6 80.8c.1-1.1 0-2.1-.1-3-.8-4.7-5.2-6.5-13.2-5.2-1.5.2-3 .6-4.7 1-.3.1-.7.2-1.2.3-.4.1-.9.2-1.5.4-.2.1-.4.2-.6.2-.3.1-.5.1-.7.2-.3.1-.5.1-.8.2-.3.1-.5.1-.7.2-.6.2-1.1.3-1.5.4-.4.1-.8.2-1.1.3-1.9.4-3.9 1.1-6.2 2.1l.2 3.2c-.7.2-1.3.5-2 .7-.7.3-1.4.5-2.1.8l.5 10.4c.4-.2.9-.4 1.3-.6.4-.2.8-.3 1.3-.5-.8 5.6-1.5 10.4-2.1 14.5-.6 4.1-1.1 7.5-1.5 10.1h-1.8l-2.6 10.4 4.8-.3c1.6-.1 3.2-.3 4.8-.6 1.2-.2 2.5-.4 3.8-.7l3.9-.9c2.1-.5 4.1-1.3 5.9-2.2 1.8-.9 3.6-2 5.2-3.4 2-1.7 3.5-3.5 4.6-5.4 3.6-3.2 5.6-7 6.2-11.4.1-1 .1-2-.1-3-.4-2.6-1.9-4.6-4.4-6 1.9-2 3.4-4 4.5-6 1-2 1.7-4.1 1.9-6.2zm-3.1 21.7c-.4 3.9-2.4 7.4-6.1 10.5-3.1 2.6-6.6 4.3-10.5 5.3-6.1 1.5-11.4 2.3-16.1 2.5l2-7.9c.6 0 1.2 0 1.9-.1.9-5.4 2.3-14.5 4.2-27.4-1.1.4-2.1.8-3 1.2l-.3-8c1.5-.7 3.1-1.2 4.8-1.6.8-.2 2.2-.6 4-1.1 1.8-.5 3.2-.9 4.1-1.1 12.1-2.9 17.7-.8 16.9 6.4-.5 4.2-2.9 8.4-7.4 12.5 4.1 1.6 5.8 4.6 5.5 8.8z"/><path class="st5" d="M265.4 81.2c.8-7.2-4.8-9.3-16.9-6.4-.9.2-2.3.6-4.1 1.1-1.8.5-3.2.9-4 1.1-1.7.4-3.3.9-4.8 1.6l.3 8c.9-.4 1.9-.8 3-1.2-1.9 12.9-3.3 22-4.2 27.4-.7.1-1.3.1-1.9.1l-2 7.9c4.7-.2 10-1 16.1-2.5 3.9-1 7.4-2.7 10.5-5.3 3.7-3.1 5.7-6.6 6.1-10.5.3-4.2-1.4-7.2-5.5-8.8 4.5-4.1 6.9-8.3 7.4-12.5zM255.2 104c-.3 1.6-1.4 3.1-3.5 4.5-1.7 1.1-3.4 1.9-5.2 2.3-.5.1-2 .3-4.2.7l1.4-10.6c1.6-.4 2.5-.7 2.7-.8 2.3-.5 4.2-.6 5.9-.2 2.1.6 3.1 1.9 2.9 4.1zm1.1-18.5c-.4 3.9-4.2 6.8-11.4 8.6h-.1l1.4-8-4.2-1.6c.8-.2 2-.5 3.5-.9 7.5-1.9 11.2-1.3 10.8 1.9z"/><path class="st2" d="M245.5 83.6c-1.5.4-2.7.7-3.5.9l4.2 1.6-1.4 8h.1c7.2-1.8 11-4.7 11.4-8.6.4-3.2-3.3-3.8-10.8-1.9zm5.7 6.4v.4c-.7.4-1.5.8-2.3 1.1-.8.4-1.8.7-2.8 1l.7-4.1c2.8-.2 4.2.2 4.4 1.4v.2zM252.3 99.9c-1.7-.4-3.6-.3-5.9.2-.2.1-1.1.4-2.7.8l-1.4 10.6c2.2-.4 3.7-.6 4.2-.7 1.8-.4 3.5-1.2 5.2-2.3 2.1-1.4 3.2-2.9 3.5-4.5.2-2.2-.8-3.5-2.9-4.1zm-2.3 8.5c-.6.2-1.1.5-1.7.7-.5.2-1.1.3-1.6.6-.1.1-.5.1-1 .2s-1.2.2-2 .3l.6-4.4c1.3-.2 2.5-.2 3.6.1h-.1c1.3.4 2 1.1 2.2 2.1v.4z"/><g class="st4"><path class="st2" d="M287.2 119.3c-.4 0-.9.1-1.5.2l-1.8.3-1.2 3.4c-.6.1-1.3.2-2.1.3-.8.1-1.6.2-2.5.3-.9.1-1.8.2-2.8.3-1 .1-1.9.2-2.8.3l-2.7.2c-.7.1-1.4.1-2.1.2-.7 0-1.5.1-2.2.1s-1.5.1-2.2.1h-1.9c.4-1.8.8-3.7 1.2-5.6.4-1.9.8-3.8 1.3-5.7.4-1.9.9-3.8 1.3-5.6.5-1.9.9-3.6 1.4-5.3.5-1.8 1-3.6 1.5-5.5.6-1.9 1.1-3.8 1.7-5.7l1.8-5.7c.6-1.9 1.2-3.7 1.8-5.4l3.1-.1c.2-.7.5-1.3.7-2 .2-.6.4-1.3.6-1.9l10.9-.2c-.7 2-1.3 4-1.9 6s-1.2 4-1.8 5.9c-.6 1.9-1.1 3.8-1.7 5.7-.5 1.8-1 3.6-1.5 5.2-.4 1.6-.8 3.3-1.3 4.9s-.8 3.3-1.2 5h.8c.6 0 1.3 0 1.9-.1s1.3-.1 1.9-.1c.9-.1 1.9-.2 3.1-.4 1.2-.2 2.5-.4 3.9-.6l-3.7 11.5z"/><path class="st5" d="M289.5 109.4c-2 .3-3.9.6-5.8.8-1.9.1-3.8.2-5.6.2.9-3.9 1.8-7.6 2.7-11 1.8-6.5 3.9-13.7 6.5-21.7l-8.6.2c-2.4 6.9-4.5 13.9-6.4 20.9-1.8 6.8-3.5 13.9-4.9 21.2 2.3 0 4.8-.2 7.4-.4l2.7-.2c3.6-.3 6.6-.7 9-1.1l3-8.9z"/></g><g class="st4"><path class="st2" d="M333.8 92.5c-.5 0-1.1-.1-1.7-.1-.6-.1-1.2-.1-1.8-.1l-1.6 3.8c-.7 0-1.5-.1-2.3-.2s-1.6-.1-2.5-.2-1.7-.1-2.5-.1-1.5-.1-2.2-.1l-2.2-.1c-.2.4-.4.8-.5 1.2-.2.4-.3.8-.5 1.2H321.7c.5 0 1.2.1 1.8.1.7 0 1.4.1 2.1.1.7.1 1.4.1 2.1.2s1.3.1 1.9.2l-4.4 11c-.6-.1-1.2-.1-1.8-.2s-1.2-.1-1.8-.2l-1.5 3.9c-1.5-.2-2.8-.3-4.2-.4-1.3-.1-2.6-.2-3.7-.2H310c-.2.4-.3.8-.5 1.3-.1.4-.3.9-.4 1.3h3.3c1.1 0 2.2 0 3.3.1.6 0 1.3.1 2.1.1s1.6.1 2.3.1c.8.1 1.6.1 2.3.2.8 0 1.4.1 2.1.2l-4.4 11c-.6 0-1.1-.1-1.8-.2-.6-.1-1.2-.1-1.8-.2l-1.6 3.9c-1-.1-2.1-.2-3.2-.3s-2.3-.2-3.5-.2c-1.2-.1-2.3-.1-3.5-.2-1.2 0-2.2-.1-3.3-.1-1 0-2.1-.1-3.3-.1-1.1 0-2.3 0-3.5-.1h-3.5c-1.2 0-2.3 0-3.3.1.6-1.6 1.1-3.2 1.8-4.9.6-1.7 1.2-3.3 1.8-5 .6-1.7 1.2-3.3 1.8-4.9.6-1.6 1.2-3.1 1.8-4.6 1-2.5 2.1-5.1 3.2-7.6s2.2-5.1 3.3-7.7l-3.5-.3 3.8-10.4c.6.1 1.3.1 1.9.2s1.2.1 1.8.1l1.5-3.8c1.7.1 3.5.3 5.3.4s3.5.2 5.2.3c1.7.1 3.3.2 4.9.2 1.6.1 3 .1 4.4.2h11.4l-4.4 11.1z"/><path class="st5" d="M336.9 82.9c-3.6 0-7 0-10.2-.1-5.4-.2-11.6-.5-18.6-1l-3 7.9 3.6.3c-2.5 5.6-4.8 11.1-7 16.5-2.3 5.8-4.6 11.8-6.8 18.1 4.2-.1 8.4 0 12.4.1 4.1.1 8.2.3 12.2.7l3.3-8.5c-2.5-.2-5-.4-7.6-.4-2.6-.1-5.2-.1-7.8 0 .4-1.4.8-2.8 1.4-4.2.6-1.4 1.2-2.9 2-4.3 2.3-.1 4.6-.1 6.9-.1 2.3.1 4.5.2 6.7.5l3.4-8.5c-2.2-.2-4.5-.3-6.7-.4s-4.5-.1-6.8 0c.5-1.8 1.2-3.5 1.8-5.3.5-1.2 1-2.3 1.4-3.2 2.4 0 4.8 0 7 .1 2.7.1 5.5.2 8.3.4l4.1-8.6z"/></g><g><path class="st2" d="M228.8 141.8c-.5-4.1-3.4-6.4-8.9-7-1-.1-2.2-.1-3.4-.1s-2.7.1-4.2.3c-2.5.3-5.3.7-8.5 1.4-1.6.3-3.1.7-4.6 1.1-1.5.4-2.9.9-4.3 1.4l-.1 3.3c-1.3.4-2.7.9-4.1 1.4l.1 10.7c.8-.3 1.4-.5 2-.8.6-.3 1.1-.4 1.6-.6-.5 2.5-1.1 5.2-1.7 8-.6 2.8-1.2 5.7-1.8 8.9-.6 3.2-1.2 6.4-1.9 9.7-.7 3.4-1.3 6.8-2 10.2l11.3-2.4c.1-.5.2-1 .3-1.7.1-.7.2-1.4.4-2.2l3.5-.7c.1-.6.2-1.2.3-2 .1-.8.3-1.6.4-2.5.3.2.6.4.8.6l.6.6c1.4 1.3 2.5 3.6 3.3 7l12.1-3.1c-.1-.6-.2-1.2-.3-1.7-.1-.5-.2-1.1-.4-1.6l5-1.3c-.5-3.1-1.5-5.7-2.8-7.9s-3.1-4-5.3-5.4c.6-.6 1.2-1.3 1.7-1.9s1-1.2 1.5-1.9c4.2-3.8 7.1-8.4 8.8-13.8h-.1c.2-.4.3-.9.4-1.3.1-.4.2-.8.2-1.3.2-1.2.2-2.3.1-3.4zm-1.3 3.5c-.1.9-.3 1.7-.5 2.4-2.4 7.5-7.2 13.3-14.5 17.4 5.7 2.3 9.1 6.5 10.2 12.6l-9.6 2.6c-.7-3-1.9-5.2-3.4-6.6-1.2-1.2-3.2-2.4-6.2-3.6-1.1 5.1-1.8 9-2.2 11.5l-8.8 1.8c2.8-14.4 5.4-26.7 7.6-36.8-1.4.2-2.7.6-3.9 1.1l-.1-8.2c2-.6 4.5-1.3 7.5-1.9 7.1-1.4 12.4-2 15.9-1.6 6.2.7 8.8 3.8 8 9.3z"/><path class="st5" d="M219.5 136c-3.5-.4-8.8.2-15.9 1.6-3 .6-5.5 1.3-7.5 1.9l.1 8.2c1.2-.5 2.5-.9 3.9-1.1-2.2 10.1-4.8 22.4-7.6 36.8l8.8-1.8c.4-2.5 1.1-6.4 2.2-11.5 3 1.2 5 2.4 6.2 3.6 1.5 1.4 2.7 3.6 3.4 6.6l9.6-2.6c-1.1-6.1-4.5-10.3-10.2-12.6 7.3-4.1 12.1-9.9 14.5-17.4.2-.7.4-1.5.5-2.4.8-5.5-1.8-8.6-8-9.3zm-1.6 13.2c-.4 2.7-2 5.2-4.8 7.4-2.4 1.8-5 3-7.7 3.6l2.5-12.4-4-1.9c1.8-.3 3.1-.5 4-.7 7.3-1.5 10.6-.2 10 4z"/><path class="st2" d="M207.9 145.2c-.9.2-2.2.4-4 .7l4 1.9-2.5 12.4c2.7-.6 5.3-1.8 7.7-3.6 2.8-2.2 4.4-4.7 4.8-7.4.6-4.2-2.7-5.5-10-4zm4.6 8.3v.6c-.1.7-.3 1.3-.6 2-.8.6-1.6 1.1-2.5 1.5-.9.4-1.8.7-2.7 1l1.7-8c2.5.1 3.9.9 4.1 2.4v.5z"/></g><g class="st4"><path class="st2" d="M264.1 141.2c-.5 0-1.1.1-1.7.1s-1.2 0-1.8.1l-1.2 4c-.7 0-1.5.1-2.3.1s-1.6.1-2.5.1c-.8 0-1.7.1-2.5.2s-1.5.1-2.2.2l-2.2.2c-.1.4-.3.9-.4 1.3-.1.4-.2.8-.3 1.3 1-.1 1.9-.3 2.9-.4s1.9-.2 2.8-.3c.5 0 1.2-.1 1.8-.1.7 0 1.4-.1 2.1-.1.7 0 1.4-.1 2.1-.1h1.9l-3.1 11.4h-3.6l-1.1 4c-1.5 0-2.9 0-4.2.1s-2.6.1-3.7.2c-.3 0-.7.1-1.1.1-.4 0-.7.1-1.1.1-.1.4-.2.9-.3 1.3-.1.5-.2.9-.3 1.4 1.1-.2 2.2-.3 3.3-.4l3.3-.3c.6 0 1.3-.1 2.1-.1.8-.1 1.5-.1 2.3-.1s1.6-.1 2.3-.1c.8 0 1.4-.1 2.1-.1l-3.1 11.4h-1.8c-.6 0-1.2 0-1.8.1l-1.1 4c-1 0-2.1.1-3.2.1s-2.3.1-3.5.2c-1.2.1-2.3.2-3.5.2-1.1.1-2.2.2-3.2.3s-2.1.2-3.2.3c-1.1.1-2.3.2-3.5.4-1.2.1-2.4.3-3.5.4-1.2.1-2.3.3-3.3.4.4-1.6.8-3.3 1.2-5.1s.8-3.5 1.2-5.2.8-3.4 1.3-5.1c.4-1.7.8-3.3 1.2-4.8.7-2.6 1.5-5.3 2.3-7.9.8-2.6 1.6-5.3 2.4-8l-3.6.1 2.6-10.7c.6 0 1.3 0 1.9-.1s1.2 0 1.8-.1l1-4c1.8-.1 3.5-.1 5.3-.2 1.8-.1 3.5-.2 5.2-.3s3.3-.2 4.9-.3c1.6-.1 3-.2 4.4-.3.8-.1 1.7-.2 2.6-.3s1.9-.2 2.9-.3l3-.3c1-.1 2-.2 2.9-.3l-3.2 11.3z"/><path class="st5" d="M266 131.2c-3.6.4-7 .8-10.1 1.1-5.3.5-11.5.8-18.5 1.2l-2 8.2 3.6-.1c-1.8 5.9-3.5 11.6-5 17.2-1.6 6-3.1 12.3-4.6 18.8 4.2-.6 8.3-1 12.3-1.4 4.1-.4 8.2-.6 12.2-.8l2.3-8.8c-2.5.1-5 .2-7.5.5-2.6.2-5.1.5-7.7.9.2-1.4.5-2.9.9-4.4s.9-3 1.5-4.5c2.3-.4 4.6-.7 6.8-.9 2.3-.2 4.5-.3 6.7-.3l2.4-8.9c-2.3.1-4.5.2-6.7.4s-4.5.5-6.8.8c.3-1.8.7-3.6 1.2-5.4.4-1.3.7-2.4 1-3.4 2.4-.3 4.7-.6 7-.8 2.7-.2 5.5-.4 8.3-.5l2.7-8.9z"/></g><g class="st4"><path class="st2" d="M274.3 183.2l1.3-8.1c-.7-.1-1.5-.3-2.2-.4-.8-.1-1.5-.2-2.3-.3l-2 4.2-3-.4-2 4-11.4-1.1c1.5-2.7 3.2-5.8 5.1-9.2 1.9-3.4 4.1-7.1 6.4-11s4.7-8 7.3-12.2c2.6-4.3 5.2-8.6 8-13.1l2.6.2c.4-.6.8-1.3 1.2-1.9.4-.6.8-1.3 1.3-2l14 .9c-1.5 6.5-2.9 13.4-4 20.9-1.1 7.4-2.1 15.3-2.9 23.6l-4.8.8-.3 2.9-12.3 2.2z"/><path class="st5" d="M290.3 176.3c1.4-16 3.6-30.1 6.5-42.3l-12-.8c-11 17.8-19.4 32.2-25.2 43.1l8.9.9 3.7-7.7c.7 0 1.4-.1 2-.1 2.9 0 5.5.4 7.9 1l-1.2 7.6 9.4-1.7z"/><path class="st2" d="M283.4 162.5c-1.7-.3-3.6-.5-5.6-.6-.5 0-1.1.1-1.8.1 4.6-8.2 8.2-14.3 10.6-18.4-.7 2.7-1.3 5.8-1.9 9.5-.4 3.2-.9 6.3-1.3 9.4z"/></g><g class="st4"><path class="st2" d="M328 148.6l-1.7 3.8-5.7-.6c-1.3 2.7-2.5 5.4-3.7 8s-2.2 5.1-3.2 7.4c-.5 1.1-1 2.3-1.5 3.6s-1 2.5-1.5 3.8-1 2.5-1.4 3.8-.9 2.4-1.3 3.5l-3.7-.7c-.3.7-.5 1.5-.8 2.1-.3.7-.5 1.3-.7 2l-11.3-1.7 1.5-4.2c.5-1.5 1.1-2.9 1.7-4.4s1.1-3 1.7-4.4 1.1-2.8 1.6-4.2c1.1-2.7 2.3-5.4 3.5-8.1 1.2-2.7 2.5-5.4 3.8-8.1l-9.5-.9 5.1-10.9 3.4.4 1.8-3.8 30.3 2.9-5.1 10.9-3.3-.2z"/><path class="st5" d="M316 146.1l14.8 1.5 3.9-8.4-27.8-2.7-4 8.4 9.5.9c-2.9 5.8-5.6 11.6-7.9 17.3-2.2 5.3-4.2 10.6-6.1 16.1l8.8 1.4c1.6-4.3 3.4-8.8 5.2-13.3 2.3-5.6 5.1-11.7 8.2-18.1l-4.6-3.1z"/></g></svg>